<svg width="103" height="62" viewBox="0 0 103 62" fill="none" xmlns="http://www.w3.org/2000/svg">
<g clip-path="url(#clip0_2_11)">
<path d="M76.6693 31.4984C76.3587 31.2005 75.9499 31.0496 75.4506 31.0457C74.6565 31.0457 73.4693 31.9987 71.889 33.9048C71.4605 34.4171 70.8866 35.1636 70.1672 36.1366C69.7387 36.7203 69.4753 37.0142 69.3809 37.0102C69.0861 37.0102 68.7913 36.8633 68.4964 36.5575C68.2055 36.2557 67.9303 36.1048 67.6709 36.1008C67.4232 36.1008 67.1756 36.2517 66.9436 36.5495C66.6802 36.9109 66.4168 37.2683 66.1495 37.6217C65.4026 38.5073 64.5181 38.9481 63.5039 38.9441C62.9456 38.9441 62.4071 38.8051 61.8921 38.5232C61.2749 38.0824 60.8464 37.5502 60.5987 36.9228C60.355 36.2994 60.2292 35.39 60.2292 34.1987C60.2292 33.2417 60.4218 31.5897 60.8032 29.2508C61.2041 26.8205 61.4086 25.4465 61.4243 25.1288C61.4361 24.966 61.4086 24.8826 61.3417 24.8826C61.2788 24.8826 61.2277 24.9422 61.1884 25.0573C60.5948 26.6656 60.1034 27.984 59.7103 29.0125C59.0302 32.9677 58.6921 35.9539 58.6921 37.9751C58.6921 39.6867 58.9948 40.9852 59.5924 41.8708C60.1467 42.6888 60.9132 43.0978 61.8842 43.0978C62.7176 43.0978 63.4921 42.7285 64.2075 41.9899C64.4984 41.6921 65.0095 41.0051 65.7407 39.921C66.2478 39.1863 66.6566 38.813 66.9593 38.813C67.1638 38.813 67.3643 38.956 67.5687 39.2379C67.8635 39.643 68.0876 39.8971 68.237 40.0044C68.5947 40.2903 69.0664 40.4332 69.6404 40.4293C71.5234 40.4293 73.2806 39.4683 74.9121 37.5383C76.3902 35.799 77.1253 34.1987 77.1253 32.7334C77.1253 32.2092 76.972 31.7962 76.6575 31.4944L76.6693 31.4984ZM73.9293 36.1127C72.6556 36.8633 71.3465 37.2127 69.9942 37.1531C71.1421 35.7633 71.7986 34.9849 71.9519 34.8261C72.5455 34.2146 73.0683 33.9088 73.5204 33.9048C74.1062 33.9048 74.6172 34.02 75.0457 34.2463C75.3838 34.429 75.5489 34.5799 75.5489 34.6951C75.5489 35.0286 75.0103 35.5012 73.9293 36.1127Z" fill="#373636"/>
<path d="M59.8282 25.8635C60.697 24.3465 61.5697 22.8256 62.4424 21.2928C62.6351 20.987 62.7334 20.5462 62.7334 19.9704C62.7334 19.7441 62.6901 19.6448 62.6036 19.6646C62.2852 19.7441 61.8528 20.304 61.3024 21.3285C60.3747 23.0639 59.7889 24.1162 59.5452 24.4815C58.7157 25.7761 57.843 26.7013 56.9231 27.2533C54.7531 28.5797 53.0431 29.767 51.793 30.8193V32.094C52.6696 31.3395 54.3325 30.2832 56.7934 28.9291C57.957 28.2858 58.9673 27.2652 59.8243 25.8595L59.8282 25.8635Z" fill="#373636"/>
<path d="M63.3466 44.9046C63.2483 44.9046 63.1304 44.9761 63.0085 45.1151C59.7928 48.6811 56.3295 50.4641 52.6185 50.4641C51.2898 50.4641 50.1969 50.067 49.3281 49.2688C48.4318 48.4428 47.9797 47.3548 47.9797 46.0006C47.9797 44.5353 48.5733 42.939 49.7566 41.1957C51.0932 39.2538 52.9448 37.5185 55.3192 35.9896C55.5786 35.8268 55.9089 35.4774 56.3138 34.9492C56.7816 34.3615 57.0921 33.8373 57.2376 33.3806C57.269 33.2893 57.2848 33.198 57.2848 33.1066C57.2848 32.4633 56.6047 32.1417 55.2484 32.1377C53.5777 32.1377 52.4062 32.2608 51.734 32.503C51.679 32.5269 51.6357 32.5428 51.5925 32.5388C51.5374 32.5388 51.5099 32.5189 51.5099 32.4673C51.5099 32.3799 51.6003 32.2648 51.7812 32.1139V30.8392C50.6726 31.7446 49.792 32.8485 49.1434 34.1471C49.0451 34.3456 48.99 34.5084 48.99 34.6315C48.99 34.8062 49.0883 34.8936 49.2849 34.8896C49.4264 34.8896 49.6033 34.8499 49.8117 34.7586C50.7197 34.3893 51.8047 34.2066 53.0666 34.2026C53.731 34.2026 54.3128 34.2622 54.8003 34.3774C55.0126 34.4369 55.1187 34.5243 55.1187 34.6514C55.1187 34.7785 55.0401 34.8777 54.8828 34.973C52.1821 36.5813 50.0082 38.8011 48.3611 41.6325C46.8987 44.162 46.1675 46.5407 46.1675 48.7764C46.1675 50.4085 46.5724 51.7229 47.3743 52.7197C48.2903 53.8474 49.6151 54.4073 51.3566 54.4073C55.3939 54.4073 59.4154 51.3854 63.4213 45.3375C63.4763 45.2501 63.5038 45.1707 63.5038 45.0913C63.5038 44.9642 63.4488 44.9007 63.3387 44.9007L63.3466 44.9046Z" fill="#373636"/>
<path d="M100.071 32.4196C99.9377 32.4196 99.6114 32.92 99.0846 33.9088C98.6168 34.8023 98.3023 35.4575 98.1451 35.8824C96.8871 36.482 95.869 37.2087 95.0906 38.0546C94.4026 38.7972 93.2901 40.3379 91.753 42.6729C90.5344 44.5234 89.4848 45.9053 88.6042 46.8187C87.8691 47.593 86.4578 48.8241 84.3743 50.5157C84.1817 50.6746 84.0834 50.7977 84.0834 50.885C84.0834 50.9406 84.1266 50.9684 84.2013 50.9684C84.2799 50.9684 84.39 50.9327 84.5315 50.8612C85.5379 50.3688 86.6229 49.6461 87.7865 48.701C89.4219 47.3786 90.7742 45.9212 91.8513 44.3288C93.3137 42.1686 94.5166 40.7072 95.4719 39.9488C96.2463 39.3293 97.0915 39.0195 98.0114 39.0156C98.4517 39.0156 98.8684 39.0592 99.2694 39.1347C99.6743 39.2141 99.9062 39.2538 99.977 39.2499C100.213 39.2499 100.626 38.8448 101.219 38.0347C101.884 37.1492 102.214 36.3828 102.214 35.7434C102.214 35.2192 101.903 34.5203 101.274 33.6546C100.692 32.8366 100.288 32.4276 100.071 32.4236V32.4196Z" fill="#373636"/>
<path d="M87.3737 36.482C87.8611 35.6402 88.1009 34.9452 88.1009 34.3893C88.1009 34.0081 87.7471 33.6427 87.0317 33.3052C86.3791 32.9994 85.758 32.8485 85.1801 32.8446L85.6597 32.2886V32.2648C85.9113 31.9908 86.3988 31.5698 87.126 31.002C88.0223 30.2951 88.7063 29.8504 89.1624 29.6677C89.5358 29.5248 89.9918 28.8576 90.5225 27.6584C90.5776 27.5432 90.6051 27.4479 90.6051 27.3724C90.6051 27.2732 90.5579 27.2215 90.4636 27.2176C90.4046 27.2176 90.3299 27.2493 90.2434 27.301C89.6184 27.6822 88.8125 28.2659 87.8179 29.0562C86.8273 29.8504 86.0961 30.4977 85.6283 30.998V31.0179C84.2917 32.4316 83.2696 34.0835 82.5541 35.9777C79.6175 37.3795 77.6402 39.9051 76.6141 43.5465C75.7021 46.7988 75.2461 50.1186 75.2461 53.502C75.2461 55.6821 75.4662 58.5134 75.9105 61.9921C76.0205 61.174 76.0834 59.7564 76.0992 57.7311C76.1149 55.2055 76.166 53.2399 76.2525 51.8381C76.4097 49.241 76.7124 46.6916 77.1645 44.1859C77.6402 41.565 80.3212 39.6192 85.1998 38.3524C86.0371 38.134 86.7565 37.5066 87.3658 36.4741L87.3737 36.482Z" fill="#373636"/>
<path d="M89.0248 34.2027C89.0248 34.2741 89.3432 34.5362 89.9722 34.9929C90.153 35.1398 90.3339 35.2868 90.5108 35.4297C90.727 35.6005 90.8881 35.6878 91.0021 35.6878C91.4267 35.6878 92.0164 35.0088 92.7712 33.6467C93.0857 33.8413 93.4709 34.155 93.9309 34.5799C94.2611 34.8817 94.5048 35.0326 94.6581 35.0326C94.8861 35.0326 95.2399 34.711 95.7235 34.0716C96.2306 33.4005 96.4822 32.8366 96.4822 32.368C96.4822 31.967 96.2345 31.5341 95.7352 31.0655C95.2596 30.6327 94.8468 30.4143 94.5048 30.4143C94.4144 30.4143 94.1628 30.72 93.7579 31.3316C93.4788 31.7525 93.1997 32.1774 92.9245 32.6023C92.7554 32.3045 92.437 31.9789 91.9653 31.6254C91.4975 31.272 91.1437 31.0933 90.896 31.0933C90.782 31.0933 90.4439 31.5738 89.8739 32.5308C89.3117 33.4879 89.0248 34.0518 89.0248 34.2146V34.2027Z" fill="#373636"/>
<path d="M46.1045 26.9396C46.0141 26.9396 45.8961 27.0945 45.7546 27.3923C44.7089 29.5684 44.1389 31.145 44.0446 32.1099C43.8637 34.2066 43.6829 36.3033 43.4942 38.4001C43.333 40.3181 43.1483 41.6682 42.9439 42.4545C42.9045 42.5975 42.8928 42.7007 42.9006 42.7603C42.9085 42.8317 42.9399 42.8516 42.991 42.8198C43.0382 42.792 43.109 42.7086 43.2033 42.5736C44.1704 41.1639 44.7836 39.373 45.0431 37.1929C45.0981 36.7441 45.2829 34.9373 45.5935 31.7644C45.8057 29.5367 45.9905 28.0912 46.1438 27.436C46.1753 27.3089 46.1871 27.2057 46.1871 27.1143C46.1871 26.9992 46.1595 26.9396 46.1045 26.9356V26.9396Z" fill="#373636"/>
<path d="M43.565 24.144C43.565 24.0209 43.5336 23.9573 43.4707 23.9534C43.3802 23.9534 43.2544 24.1082 43.0972 24.41C42.1301 26.3638 41.5955 27.9443 41.4933 29.1475C41.2889 31.55 41.1238 33.1702 40.998 34.0001C40.7621 35.521 40.4515 36.4622 40.0623 36.8235V36.8513C38.8516 37.9871 37.6014 38.821 36.3199 39.3531C36.8742 38.7654 37.4245 37.8997 37.971 36.756C38.541 35.5528 38.828 34.6156 38.828 33.9485C38.828 33.3727 38.6471 32.9399 38.2894 32.6341C37.9867 32.376 37.6093 32.2489 37.1651 32.2449C36.0408 32.2449 34.9283 33.0391 33.8275 34.6276C33.7135 34.7983 33.6271 34.8777 33.572 34.8777C33.5406 34.8777 33.5248 34.8658 33.5248 34.8301C33.5248 34.7705 33.5563 34.6831 33.6192 34.572C33.9022 34.0398 34.1774 32.9994 34.4487 31.4547C34.6963 30.0728 34.8496 28.8894 34.8968 27.9085C34.9519 26.749 35.1405 25.3393 35.459 23.6794C35.4826 23.5483 35.4944 23.4292 35.4944 23.3259C35.4944 23.1552 35.4629 23.0678 35.4039 23.0639C35.3057 23.0639 35.1956 23.2187 35.0737 23.5245C33.9966 26.3479 33.4226 28.119 33.3519 28.8497C33.2104 30.8312 33.0688 32.8048 32.9195 34.7785C32.7386 35.9539 32.09 37.3596 30.9735 38.9957C30.6315 38.9759 30.1834 38.8011 29.6212 38.4795C29.004 38.0387 28.5755 37.5026 28.3279 36.8752C28.0841 36.2517 27.9583 35.3423 27.9583 34.151C27.9583 33.194 28.151 31.542 28.5323 29.2031C28.9333 26.7728 29.1377 25.3988 29.1534 25.0812C29.1652 24.9183 29.1377 24.8349 29.0709 24.8349C29.008 24.8349 28.9569 24.8945 28.9175 25.0097C28.3239 26.6179 27.8325 27.9363 27.4394 28.9648C26.7593 32.92 26.4213 35.9062 26.4213 37.9275C26.4213 39.639 26.724 40.9376 27.3215 41.8231C27.8758 42.6411 28.6424 43.0502 29.6134 43.0502C30.431 43.0502 31.4138 42.8198 32.5578 42.3552C33.5091 41.978 34.256 41.5888 34.7946 41.1718C35.6084 41.017 36.5047 40.6993 37.4874 40.2267C38.5489 39.7184 39.4137 39.1585 40.0781 38.547V38.5152C40.5734 38.0387 41.0766 37.03 41.5955 35.4853C42.2284 33.5752 42.6373 31.411 42.8259 28.9926C42.9046 27.9641 43.1404 26.4313 43.5296 24.3981C43.5532 24.2909 43.565 24.2035 43.565 24.1281V24.144ZM31.7165 39.0037C33.631 36.2914 35.0344 34.9333 35.9346 34.9294C36.3002 34.9294 36.6344 35.0485 36.9292 35.2828C37.1651 35.4734 37.2791 35.6203 37.2791 35.7196C37.2791 36.2795 36.7051 36.9506 35.5573 37.7289C34.2954 38.5787 33.0138 39.0076 31.7165 39.0037Z" fill="#373636"/>
<path d="M8.34981 36.3152C8.16898 36.3152 7.85449 36.7441 7.40241 37.5939C6.9346 38.4874 6.69873 39.1625 6.69873 39.6231C6.69873 39.8137 7.02895 40.0838 7.69331 40.4372C7.74048 40.461 7.98028 40.6119 8.40878 40.8899C8.65644 41.0448 8.84514 41.1242 8.97093 41.1242C9.21466 41.1242 9.54881 40.7827 9.97338 40.0997C10.3979 39.4166 10.6102 38.8527 10.6102 38.408C10.6102 37.9632 10.3626 37.5145 9.8633 37.034C9.36405 36.5575 8.86086 36.3192 8.35374 36.3152H8.34981Z" fill="#373636"/>
<path d="M26.1658 27.4479C26.0871 27.4479 25.9967 27.4836 25.8945 27.5432C25.4031 27.8847 24.9117 28.2262 24.4164 28.5677C24.0115 28.8298 23.5398 28.9609 23.0012 28.9569C22.4469 28.9569 21.8769 28.8258 21.2872 28.5558C20.6975 28.2898 20.4027 28.0237 20.4027 27.7537C20.4027 27.5353 20.5953 27.2176 20.9767 26.7966C21.3894 26.3519 21.7629 26.1255 22.0892 26.1255C22.3368 26.1255 22.6159 26.197 22.9186 26.34C23.2213 26.4829 23.4611 26.5544 23.6341 26.5504C24.0783 26.5504 24.2985 26.2447 24.2985 25.6292C24.2985 25.2956 24.1098 24.9898 23.7363 24.7198C23.41 24.4775 23.0916 24.3584 22.7889 24.3544C22.0459 24.3544 21.1693 25.1129 20.1511 26.6219C18.9757 28.3811 18.3821 29.4175 18.3821 29.7392C18.3821 30.1482 18.6848 30.5215 19.2823 30.859C19.9152 31.2164 20.6032 31.3673 21.3462 31.3078C20.8862 32.0027 20.1236 32.4355 19.0622 32.6063C18.7202 32.6619 18.4253 32.6897 18.1737 32.6857C17.9733 32.6857 17.7413 32.6619 17.4819 32.6103C17.2263 32.5586 17.0141 32.5348 16.8489 32.5308C16.4912 32.5308 16.2121 32.7413 16.0155 33.1583C15.8622 33.4998 15.7993 33.8294 15.8268 34.151C15.8819 34.7109 15.8976 35.2272 15.874 35.6997C15.7286 38.6383 14.8126 41.1162 13.134 43.1375C11.3375 45.2938 9.07314 46.3739 6.34099 46.3739C4.98475 46.3739 3.84078 46.0483 2.9091 45.3931C1.8241 44.6306 1.2816 43.5624 1.2816 42.1924C1.2816 40.9296 1.78872 39.1307 2.80689 36.8077C2.88551 36.6369 2.92482 36.4939 2.92482 36.3828C2.92482 36.2199 2.86193 36.1643 2.72434 36.216C2.59068 36.2755 2.46095 36.4344 2.32336 36.7004C0.770555 39.7581 -0.0078125 42.4585 -0.0078125 44.8014C-0.0078125 46.4295 0.393165 47.74 1.19512 48.7327C2.11108 49.8645 3.44374 50.4323 5.20096 50.4323C7.85841 50.4323 10.2721 49.11 12.4421 46.4653C14.4038 44.0787 15.8033 41.1282 16.6485 37.6058C16.7743 36.9943 16.8961 36.3788 17.0101 35.7633C17.0966 35.382 17.2303 35.1875 17.4111 35.1835C18.3231 35.1835 19.1801 34.842 19.9781 34.155C20.1865 33.9684 20.9845 33.1066 22.3683 31.5698C23.5634 30.2356 24.7859 29.1038 26.0321 28.1786C26.2523 28.0158 26.3623 27.841 26.3623 27.6504C26.3623 27.5075 26.2994 27.4399 26.1618 27.436L26.1658 27.4479Z" fill="#373636"/>
<path d="M36.4614 28.3176C36.6894 28.4685 36.9135 28.6114 37.1415 28.7544C37.798 29.211 38.1833 29.4414 38.2894 29.4414C38.5253 29.4414 38.8594 29.1277 39.2918 28.4923C39.7243 27.8569 39.9405 27.3327 39.9405 26.9158C39.9405 26.4988 39.7125 26.0223 39.2565 25.5537C38.8004 25.0851 38.3287 24.8508 37.8452 24.8469C37.6997 24.8469 37.3892 25.2956 36.9096 26.1851C36.4339 27.0786 36.198 27.6623 36.1941 27.9443C36.1941 28.0714 36.2845 28.1945 36.4653 28.3215L36.4614 28.3176Z" fill="#373636"/>
<path d="M90.6012 21.7256L85.3374 24.8032C84.7831 25.1129 84.4372 25.3988 84.2957 25.649C84.1541 25.9032 84.0834 26.2685 84.0834 26.749L89.9251 23.3974C90.3732 23.1234 90.6012 22.5675 90.6012 21.7216V21.7256Z" fill="#373636"/>
<path d="M97.7362 24.8032C97.1819 25.1129 96.836 25.3988 96.6945 25.649C96.5529 25.9032 96.4822 26.2685 96.4822 26.749L102.324 23.3974C102.772 23.1234 103 22.5675 103 21.7216L97.7362 24.7992V24.8032Z" fill="#373636"/>
<path d="M69.3534 23.3974C69.8016 23.1234 70.0296 22.5675 70.0296 21.7216L64.7658 24.7992C64.2115 25.109 63.8655 25.3949 63.724 25.645C63.5825 25.8992 63.5117 26.2645 63.5117 26.745L69.3534 23.3935V23.3974Z" fill="#373636"/>
<path d="M17.4347 40.1314C17.2932 40.3856 17.2224 40.7509 17.2224 41.2314L23.0641 37.8799C23.5122 37.6059 23.7403 37.0499 23.7403 36.2041L18.4764 39.2816C17.9222 39.5914 17.5762 39.8773 17.4347 40.1275V40.1314Z" fill="#373636"/>
<path d="M34.9755 18.0445L29.7117 21.122C29.1574 21.4318 28.8114 21.7177 28.6699 21.9678C28.5284 22.222 28.4576 22.5873 28.4576 23.0678L34.2993 19.7163C34.7475 19.4423 34.9755 18.8863 34.9755 18.0405V18.0445Z" fill="#373636"/>
<path d="M7.73262 32.3919C8.64858 32.1774 9.41122 31.828 10.0205 31.3435C10.6299 30.863 10.9444 30.3071 10.964 29.6757C10.9837 28.9887 10.6377 28.5518 9.9262 28.3771C9.32081 28.2183 8.80976 28.2858 8.39305 28.5757C7.97242 28.8656 7.87807 29.2309 8.10215 29.6757C8.29871 30.0211 8.71541 30.1919 9.36012 30.1919C9.4584 30.2316 9.50557 30.3309 9.50557 30.4857C9.16356 31.0576 8.41271 31.5222 7.25695 31.8875L6.39603 32.1536C6.33706 32.3124 6.33706 32.4236 6.39603 32.4911C6.63976 32.5904 7.08791 32.5547 7.74048 32.3879L7.73262 32.3919Z" fill="#373636"/>
<path d="M79.6293 31.546C79.307 31.7644 78.9453 31.9312 78.5994 32.1218C78.8706 32.642 79.2519 32.646 79.5939 32.4077C80.105 32.0543 80.6396 31.689 81.0327 31.2204C81.4219 30.7558 81.7521 30.1879 81.9173 29.6081C82.1256 28.8814 81.7089 28.4009 80.9777 28.2818C80.1482 28.1468 79.1301 28.6352 79.0397 29.2349C79.02 29.3739 79.0868 29.5248 79.1222 29.7233C79.3502 29.6201 79.535 29.4652 79.704 29.4771C80.05 29.5049 80.5335 29.5168 80.6868 29.7312C80.8401 29.9497 80.7654 30.4778 80.5964 30.7399C80.3762 31.0774 79.9792 31.3078 79.6293 31.546Z" fill="#373636"/>
<path d="M65.8036 28.8894C66.2203 29.2905 66.8335 29.0363 67.836 28.0316C68.2605 28.4367 68.748 28.81 69.2944 28.2898C69.9313 27.6822 70.0767 26.88 70.0256 25.8714C69.1175 27.4598 68.9957 27.6345 68.7912 27.4995C68.461 27.2851 68.2212 26.9277 67.8831 26.5743C67.6905 26.9078 67.5254 27.3367 67.2384 27.6544C67.0576 27.8569 66.6999 27.9602 66.4168 27.9681C66.3264 27.9681 66.1888 27.5472 66.1259 27.3049C66.0787 27.1104 66.1181 26.892 66.1181 26.6299C65.5205 27.2017 65.3751 28.4764 65.8036 28.8894Z" fill="#373636"/>
<path d="M20.5049 22.4325C21.4876 22.6548 22.6906 21.5271 22.6749 20.4311C22.0144 21.4079 21.2007 21.6184 20.1353 21.3166C19.2783 21.0744 18.3506 21.9401 18.2916 23.0242C18.9324 22.1823 19.6675 22.2458 20.5049 22.4364V22.4325Z" fill="#373636"/>
<path d="M52.705 22.905C52.3394 22.5198 51.9423 22.4245 51.5649 22.8812C50.8141 23.7866 50.5468 24.9025 50.3345 25.5617C50.1301 27.0984 51.2426 27.4678 51.9423 27.1302C53.2239 26.5107 53.6917 23.9494 52.705 22.909V22.905ZM50.9635 25.1923C51.1482 24.8508 51.4313 24.5689 51.6829 24.2631C51.962 24.5173 52.2411 24.7714 52.5202 25.0216C52.2608 25.2638 52.0013 25.5061 51.6357 25.8515C51.3173 25.5418 50.932 25.2519 50.9674 25.1884L50.9635 25.1923Z" fill="#373636"/>
<path d="M28.6188 9.98322C28.4223 10.1818 28.324 10.42 28.324 10.702C28.324 10.9839 28.4223 11.2063 28.6188 11.3969C28.8154 11.5836 29.0512 11.6789 29.3264 11.6789C29.6016 11.6789 29.8257 11.5836 30.0144 11.3929C30.2031 11.2023 30.2974 10.972 30.2974 10.698C30.2974 10.424 30.2031 10.1778 30.0183 9.98322C29.8296 9.78467 29.6016 9.68539 29.3303 9.68539C29.0591 9.68539 28.8154 9.78467 28.6188 9.98322Z" fill="#F93232"/>
<path d="M24.9707 8.45437C25.1948 8.58541 25.4542 8.68469 25.7491 8.74425C26.04 8.79985 26.3584 8.83161 26.6965 8.83161H63.1382L63.1264 3.45878V3.3476L61.4399 3.82809V7.34644H33.6192V3.35554L32.0192 3.8678V7.34644H26.9834C26.665 7.34644 26.4134 7.29879 26.2405 7.19951C26.0675 7.10421 25.9495 6.97713 25.8827 6.81829C25.812 6.65548 25.7884 6.46487 25.8041 6.25043C25.8238 6.02805 25.8749 5.79376 25.9574 5.54359C26.04 5.29341 26.1461 5.03926 26.268 4.78909C26.3938 4.53891 26.5274 4.2927 26.6689 4.05841L26.7476 3.93134H25.3913L25.3677 3.97502C25.2813 4.12592 25.1751 4.28476 25.0493 4.45552C24.9196 4.63024 24.7938 4.84071 24.6759 5.07897C24.5579 5.31724 24.4557 5.60315 24.3692 5.93275C24.2827 6.26235 24.2395 6.66342 24.2395 7.12009C24.2395 7.4338 24.3024 7.70384 24.4282 7.92224C24.554 8.14462 24.7348 8.32332 24.9589 8.45834L24.9707 8.45437Z" fill="#F93232"/>
<path d="M63.0557 1.79492L62.069 2.08878C62.01 2.08084 61.9353 2.06098 61.8527 2.02921C61.7623 1.99347 61.6758 1.94979 61.5933 1.8942C61.5147 1.8386 61.4478 1.77109 61.3928 1.69167C61.3417 1.61622 61.3181 1.5368 61.3181 1.44944C61.3181 1.35413 61.3574 1.25883 61.4321 1.16352C61.5029 1.07219 61.6287 1.02851 61.8095 1.02851C62.0021 1.02851 62.1594 1.09601 62.2852 1.23103L62.3402 1.2906L62.3992 1.23897C62.5564 1.10396 62.694 0.984825 62.8119 0.88952C62.9259 0.794215 63.0242 0.714794 63.1029 0.647286L63.1657 0.595663L63.1146 0.528155C62.9456 0.305776 62.7687 0.162818 62.5879 0.0953103C62.2459 -0.0277923 61.8724 -0.0397054 61.4439 0.115166C61.2356 0.190615 61.0429 0.301805 60.8621 0.448734C60.6852 0.595663 60.5358 0.77436 60.4179 0.976883C60.2999 1.18735 60.241 1.42561 60.241 1.6877C60.241 1.76712 60.2567 1.86243 60.2842 1.96567C60.3117 2.06495 60.355 2.16423 60.4061 2.25556C60.4572 2.3469 60.5201 2.42632 60.5948 2.49382C60.6105 2.50574 60.6262 2.52162 60.6419 2.53354L60.009 2.72812V3.66131L63.0439 2.75591V1.79492H63.0557Z" fill="#F93232"/>
<path d="M70.1002 2.87504C70.3675 2.87504 70.5995 2.77973 70.7842 2.5931C70.9729 2.40248 71.0673 2.17216 71.0673 1.89816C71.0673 1.62416 70.9729 1.37795 70.7882 1.18337C70.5995 0.98482 70.3715 0.885544 70.1002 0.885544C69.829 0.885544 69.5852 0.98482 69.3887 1.18337C69.1961 1.38193 69.0978 1.62019 69.0978 1.90213C69.0978 2.18408 69.1961 2.41043 69.3926 2.59707C69.5892 2.78371 69.825 2.87901 70.1002 2.87901V2.87504Z" fill="#F93232"/>
<path d="M75.6825 0.444763L74 0.92526V7.34248H71.0084V3.34363L69.3219 3.82413V7.34248H66.2635V0.444763L64.577 0.92526V8.82765H75.6825V0.444763Z" fill="#F93232"/>
<path d="M78.5994 0.444763L76.9169 0.92526V8.82765H78.5994V0.444763Z" fill="#F93232"/>
</g>
<defs>
<clipPath id="clip0_2_11">
<rect width="103" height="62" fill="white"/>
</clipPath>
</defs>
</svg>
