<svg width="103" height="62" viewBox="0 0 103 62" fill="none" xmlns="http://www.w3.org/2000/svg">
<g clip-path="url(#clip0_66_2527)">
<path d="M76.6693 31.4983C76.3587 31.2005 75.9499 31.0496 75.4506 31.0456C74.6565 31.0456 73.4693 31.9987 71.889 33.9048C71.4605 34.4171 70.8866 35.1636 70.1672 36.1365C69.7387 36.7203 69.4753 37.0141 69.3809 37.0102C69.0861 37.0102 68.7913 36.8632 68.4964 36.5575C68.2055 36.2557 67.9303 36.1048 67.6709 36.1008C67.4232 36.1008 67.1756 36.2517 66.9436 36.5495C66.6802 36.9109 66.4168 37.2683 66.1495 37.6217C65.4026 38.5072 64.5181 38.948 63.5039 38.9441C62.9456 38.9441 62.4071 38.8051 61.8921 38.5231C61.2749 38.0823 60.8464 37.5502 60.5987 36.9228C60.355 36.2993 60.2292 35.39 60.2292 34.1987C60.2292 33.2416 60.4218 31.5897 60.8032 29.2507C61.2041 26.8204 61.4086 25.4465 61.4243 25.1288C61.4361 24.966 61.4086 24.8826 61.3417 24.8826C61.2788 24.8826 61.2277 24.9421 61.1884 25.0573C60.5948 26.6656 60.1034 27.984 59.7103 29.0125C59.0302 32.9676 58.6921 35.9539 58.6921 37.9751C58.6921 39.6866 58.9948 40.9852 59.5924 41.8707C60.1467 42.6888 60.9132 43.0978 61.8842 43.0978C62.7176 43.0978 63.4921 42.7285 64.2075 41.9898C64.4984 41.692 65.0095 41.005 65.7407 39.9209C66.2478 39.1863 66.6566 38.813 66.9593 38.813C67.1638 38.813 67.3643 38.956 67.5687 39.2379C67.8635 39.643 68.0876 39.8971 68.237 40.0043C68.5947 40.2902 69.0664 40.4332 69.6404 40.4292C71.5234 40.4292 73.2806 39.4682 74.9121 37.5383C76.3902 35.799 77.1253 34.1987 77.1253 32.7333C77.1253 32.2092 76.972 31.7962 76.6575 31.4944L76.6693 31.4983ZM73.9293 36.1127C72.6556 36.8632 71.3465 37.2127 69.9942 37.1531C71.1421 35.7632 71.7986 34.9849 71.9519 34.8261C72.5455 34.2145 73.0683 33.9088 73.5204 33.9048C74.1062 33.9048 74.6172 34.02 75.0457 34.2463C75.3838 34.429 75.5489 34.5799 75.5489 34.695C75.5489 35.0286 75.0103 35.5012 73.9293 36.1127Z" fill="white"/>
<path d="M59.8282 25.8634C60.697 24.3465 61.5697 22.8255 62.4424 21.2927C62.6351 20.9869 62.7334 20.5462 62.7334 19.9704C62.7334 19.744 62.6901 19.6447 62.6036 19.6646C62.2852 19.744 61.8528 20.3039 61.3024 21.3285C60.3747 23.0638 59.7889 24.1161 59.5452 24.4815C58.7157 25.776 57.843 26.7013 56.9231 27.2533C54.7531 28.5796 53.0431 29.7669 51.793 30.8193V32.094C52.6696 31.3395 54.3325 30.2832 56.7934 28.929C57.957 28.2857 58.9673 27.2652 59.8243 25.8594L59.8282 25.8634Z" fill="white"/>
<path d="M63.3466 44.9046C63.2483 44.9046 63.1304 44.976 63.0085 45.115C59.7928 48.681 56.3295 50.464 52.6185 50.464C51.2898 50.464 50.1969 50.0669 49.3281 49.2688C48.4318 48.4428 47.9797 47.3547 47.9797 46.0006C47.9797 44.5353 48.5733 42.9389 49.7566 41.1956C51.0932 39.2538 52.9448 37.5184 55.3192 35.9896C55.5786 35.8267 55.9089 35.4773 56.3138 34.9491C56.7816 34.3614 57.0921 33.8373 57.2376 33.3806C57.269 33.2892 57.2848 33.1979 57.2848 33.1066C57.2848 32.4633 56.6047 32.1416 55.2484 32.1376C53.5777 32.1376 52.4062 32.2607 51.734 32.503C51.679 32.5268 51.6357 32.5427 51.5925 32.5387C51.5374 32.5387 51.5099 32.5189 51.5099 32.4672C51.5099 32.3799 51.6003 32.2647 51.7812 32.1138V30.8391C50.6726 31.7445 49.792 32.8485 49.1434 34.147C49.0451 34.3455 48.99 34.5084 48.99 34.6315C48.99 34.8062 49.0883 34.8936 49.2849 34.8896C49.4264 34.8896 49.6033 34.8499 49.8117 34.7585C50.7197 34.3892 51.8047 34.2066 53.0666 34.2026C53.731 34.2026 54.3128 34.2622 54.8003 34.3773C55.0126 34.4369 55.1187 34.5242 55.1187 34.6513C55.1187 34.7784 55.0401 34.8777 54.8828 34.973C52.1821 36.5812 50.0082 38.8011 48.3611 41.6324C46.8987 44.162 46.1675 46.5406 46.1675 48.7763C46.1675 50.4084 46.5724 51.7229 47.3743 52.7196C48.2903 53.8474 49.6151 54.4073 51.3566 54.4073C55.3939 54.4073 59.4154 51.3853 63.4213 45.3374C63.4763 45.25 63.5038 45.1706 63.5038 45.0912C63.5038 44.9641 63.4488 44.9006 63.3387 44.9006L63.3466 44.9046Z" fill="white"/>
<path d="M100.071 32.4197C99.9376 32.4197 99.6113 32.92 99.0845 33.9088C98.6167 34.8023 98.3022 35.4575 98.145 35.8824C96.887 36.4821 95.8688 37.2088 95.0905 38.0546C94.4025 38.7972 93.29 40.338 91.7529 42.6729C90.5343 44.5234 89.4846 45.9054 88.6041 46.8187C87.8689 47.5931 86.4577 48.8241 84.3742 50.5158C84.1815 50.6746 84.0833 50.7977 84.0833 50.8851C84.0833 50.9407 84.1265 50.9685 84.2012 50.9685C84.2798 50.9685 84.3899 50.9327 84.5314 50.8612C85.5378 50.3688 86.6228 49.6461 87.7864 48.701C89.4217 47.3786 90.7741 45.9212 91.8512 44.3289C93.3136 42.1686 94.5165 40.7073 95.4718 39.9488C96.2462 39.3293 97.0914 39.0196 98.0113 39.0156C98.4516 39.0156 98.8683 39.0593 99.2693 39.1347C99.6742 39.2141 99.9061 39.2539 99.9769 39.2499C100.213 39.2499 100.626 38.8448 101.219 38.0347C101.883 37.1492 102.214 36.3828 102.214 35.7434C102.214 35.2193 101.903 34.5204 101.274 33.6547C100.692 32.8366 100.287 32.4276 100.071 32.4236V32.4197Z" fill="white"/>
<path d="M87.3737 36.482C87.8611 35.6401 88.1009 34.9452 88.1009 34.3892C88.1009 34.008 87.7471 33.6427 87.0317 33.3051C86.3791 32.9994 85.758 32.8485 85.1801 32.8445L85.6597 32.2886V32.2647C85.9113 31.9907 86.3988 31.5698 87.126 31.0019C88.0223 30.2951 88.7063 29.8503 89.1624 29.6677C89.5358 29.5247 89.9918 28.8576 90.5225 27.6583C90.5776 27.5432 90.6051 27.4478 90.6051 27.3724C90.6051 27.2731 90.5579 27.2215 90.4636 27.2175C90.4046 27.2175 90.3299 27.2493 90.2434 27.3009C89.6184 27.6821 88.8125 28.2659 87.8179 29.0561C86.8273 29.8503 86.0961 30.4976 85.6283 30.998V31.0178C84.2917 32.4315 83.2696 34.0835 82.5541 35.9777C79.6175 37.3794 77.6402 39.905 76.6141 43.5465C75.7021 46.7988 75.2461 50.1186 75.2461 53.5019C75.2461 55.682 75.4662 58.5134 75.9105 61.992C76.0205 61.174 76.0834 59.7563 76.0992 57.7311C76.1149 55.2055 76.166 53.2398 76.2525 51.838C76.4097 49.241 76.7124 46.6916 77.1645 44.1858C77.6402 41.5649 80.3212 39.6191 85.1998 38.3524C86.0371 38.1339 86.7565 37.5065 87.3658 36.474L87.3737 36.482Z" fill="white"/>
<path d="M89.0249 34.2027C89.0249 34.2742 89.3433 34.5363 89.9723 34.9929C90.1531 35.1399 90.334 35.2868 90.5109 35.4297C90.7271 35.6005 90.8883 35.6879 91.0023 35.6879C91.4268 35.6879 92.0165 35.0088 92.7713 33.6467C93.0858 33.8413 93.471 34.155 93.931 34.5799C94.2612 34.8817 94.5049 35.0326 94.6582 35.0326C94.8862 35.0326 95.24 34.711 95.7236 34.0716C96.2307 33.4005 96.4823 32.8366 96.4823 32.3681C96.4823 31.967 96.2346 31.5341 95.7354 31.0656C95.2597 30.6327 94.8469 30.4143 94.5049 30.4143C94.4145 30.4143 94.1629 30.7201 93.758 31.3316C93.4789 31.7526 93.1998 32.1775 92.9246 32.6024C92.7556 32.3045 92.4371 31.9789 91.9654 31.6255C91.4976 31.2721 91.1438 31.0934 90.8961 31.0934C90.7821 31.0934 90.444 31.5739 89.874 32.5309C89.3119 33.4879 89.0249 34.0518 89.0249 34.2146V34.2027Z" fill="white"/>
<path d="M46.1046 26.9398C46.0142 26.9398 45.8963 27.0946 45.7548 27.3925C44.7091 29.5686 44.139 31.1451 44.0447 32.1101C43.8639 34.2068 43.683 36.3035 43.4943 38.4002C43.3332 40.3182 43.1484 41.6684 42.944 42.4547C42.9047 42.5976 42.8929 42.7009 42.9007 42.7604C42.9086 42.8319 42.94 42.8518 42.9912 42.82C43.0383 42.7922 43.1091 42.7088 43.2034 42.5738C44.1705 41.1641 44.7838 39.3731 45.0432 37.193C45.0982 36.7443 45.283 34.9375 45.5936 31.7646C45.8059 29.5368 45.9906 28.0914 46.1439 27.4361C46.1754 27.3091 46.1872 27.2058 46.1872 27.1145C46.1872 26.9993 46.1597 26.9398 46.1046 26.9358V26.9398Z" fill="white"/>
<path d="M43.5651 24.1441C43.5651 24.021 43.5337 23.9575 43.4708 23.9535C43.3804 23.9535 43.2546 24.1084 43.0973 24.4102C42.1303 26.3639 41.5956 27.9444 41.4934 29.1476C41.289 31.5501 41.1239 33.1703 40.9981 34.0002C40.7622 35.5211 40.4517 36.4623 40.0625 36.8237V36.8514C38.8517 37.9872 37.6016 38.8211 36.32 39.3532C36.8743 38.7655 37.4247 37.8998 37.9711 36.7561C38.5411 35.5529 38.8281 34.6157 38.8281 33.9486C38.8281 33.3728 38.6473 32.94 38.2895 32.6342C37.9868 32.3761 37.6094 32.249 37.1652 32.245C36.0409 32.245 34.9284 33.0392 33.8277 34.6277C33.7137 34.7984 33.6272 34.8778 33.5721 34.8778C33.5407 34.8778 33.525 34.8659 33.525 34.8302C33.525 34.7706 33.5564 34.6833 33.6193 34.5721C33.9024 34.0399 34.1775 32.9995 34.4488 31.4548C34.6965 30.0729 34.8498 28.8895 34.8969 27.9086C34.952 26.7491 35.1407 25.3394 35.4591 23.6795C35.4827 23.5484 35.4945 23.4293 35.4945 23.3261C35.4945 23.1553 35.463 23.0679 35.4041 23.064C35.3058 23.064 35.1957 23.2188 35.0738 23.5246C33.9967 26.348 33.4228 28.1191 33.352 28.8498C33.2105 30.8313 33.069 32.8049 32.9196 34.7786C32.7387 35.954 32.0901 37.3597 30.9737 38.9958C30.6316 38.976 30.1835 38.8012 29.6213 38.4796C29.0042 38.0388 28.5757 37.5027 28.328 36.8753C28.0843 36.2518 27.9585 35.3425 27.9585 34.1511C27.9585 33.1941 28.1511 31.5422 28.5324 29.2032C28.9334 26.7729 29.1378 25.3989 29.1535 25.0813C29.1653 24.9184 29.1378 24.8351 29.071 24.8351C29.0081 24.8351 28.957 24.8946 28.9177 25.0098C28.3241 26.6181 27.8327 27.9364 27.4396 28.9649C26.7595 32.9201 26.4214 35.9063 26.4214 37.9276C26.4214 39.6391 26.7241 40.9377 27.3216 41.8232C27.8759 42.6412 28.6425 43.0503 29.6135 43.0503C30.4312 43.0503 31.4139 42.8199 32.5579 42.3553C33.5092 41.9781 34.2562 41.5889 34.7947 41.172C35.6085 41.0171 36.5048 40.6994 37.4876 40.2268C38.549 39.7185 39.4138 39.1586 40.0782 38.5471V38.5153C40.5735 38.0388 41.0767 37.0301 41.5956 35.4854C42.2285 33.5753 42.6374 31.4111 42.8261 28.9927C42.9047 27.9642 43.1406 26.4314 43.5297 24.3982C43.5533 24.291 43.5651 24.2037 43.5651 24.1282V24.1441ZM31.7166 39.0038C33.6311 36.2915 35.0345 34.9334 35.9348 34.9295C36.3004 34.9295 36.6345 35.0486 36.9293 35.2829C37.1652 35.4735 37.2792 35.6204 37.2792 35.7197C37.2792 36.2796 36.7053 36.9507 35.5574 37.7291C34.2955 38.5789 33.0139 39.0077 31.7166 39.0038Z" fill="white"/>
<path d="M8.34981 36.3152C8.16898 36.3152 7.85449 36.7441 7.40241 37.5939C6.9346 38.4874 6.69873 39.1624 6.69873 39.6231C6.69873 39.8137 7.02895 40.0837 7.69331 40.4371C7.74048 40.461 7.98028 40.6119 8.40878 40.8898C8.65644 41.0447 8.84514 41.1241 8.97093 41.1241C9.21466 41.1241 9.54881 40.7826 9.97338 40.0996C10.3979 39.4166 10.6102 38.8527 10.6102 38.4079C10.6102 37.9632 10.3626 37.5144 9.8633 37.0339C9.36405 36.5574 8.86086 36.3192 8.35374 36.3152H8.34981Z" fill="white"/>
<path d="M26.1658 27.4479C26.0871 27.4479 25.9967 27.4837 25.8945 27.5432C25.4031 27.8848 24.9117 28.2263 24.4164 28.5678C24.0115 28.8299 23.5398 28.9609 23.0012 28.9569C22.4469 28.9569 21.8769 28.8259 21.2872 28.5559C20.6975 28.2898 20.4027 28.0237 20.4027 27.7537C20.4027 27.5353 20.5953 27.2176 20.9767 26.7967C21.3894 26.3519 21.7629 26.1256 22.0892 26.1256C22.3368 26.1256 22.6159 26.1971 22.9186 26.34C23.2213 26.483 23.4611 26.5545 23.6341 26.5505C24.0783 26.5505 24.2985 26.2447 24.2985 25.6292C24.2985 25.2956 24.1098 24.9899 23.7363 24.7198C23.41 24.4776 23.0916 24.3585 22.7889 24.3545C22.0459 24.3545 21.1693 25.113 20.1511 26.622C18.9757 28.3811 18.3821 29.4176 18.3821 29.7392C18.3821 30.1483 18.6848 30.5215 19.2823 30.8591C19.9152 31.2165 20.6032 31.3674 21.3462 31.3078C20.8862 32.0027 20.1236 32.4356 19.0622 32.6063C18.7202 32.6619 18.4253 32.6897 18.1737 32.6858C17.9733 32.6858 17.7413 32.6619 17.4819 32.6103C17.2263 32.5587 17.0141 32.5349 16.8489 32.5309C16.4912 32.5309 16.2121 32.7413 16.0155 33.1583C15.8622 33.4998 15.7993 33.8294 15.8268 34.1511C15.8819 34.711 15.8976 35.2272 15.874 35.6998C15.7286 38.6384 14.8126 41.1163 13.134 43.1376C11.3375 45.2938 9.07314 46.374 6.34099 46.374C4.98475 46.374 3.84078 46.0483 2.9091 45.3931C1.8241 44.6307 1.2816 43.5625 1.2816 42.1924C1.2816 40.9297 1.78872 39.1308 2.80689 36.8077C2.88551 36.6369 2.92482 36.494 2.92482 36.3828C2.92482 36.22 2.86193 36.1644 2.72434 36.216C2.59068 36.2756 2.46095 36.4344 2.32336 36.7005C0.770555 39.7582 -0.0078125 42.4585 -0.0078125 44.8014C-0.0078125 46.4296 0.393165 47.74 1.19512 48.7328C2.11108 49.8645 3.44374 50.4324 5.20096 50.4324C7.85841 50.4324 10.2721 49.11 12.4421 46.4653C14.4038 44.0787 15.8033 41.1282 16.6485 37.6059C16.7743 36.9943 16.8961 36.3788 17.0101 35.7633C17.0966 35.3821 17.2303 35.1875 17.4111 35.1835C18.3231 35.1835 19.1801 34.842 19.9781 34.155C20.1865 33.9684 20.9845 33.1067 22.3683 31.5699C23.5634 30.2356 24.7859 29.1039 26.0321 28.1786C26.2523 28.0158 26.3623 27.8411 26.3623 27.6505C26.3623 27.5075 26.2994 27.44 26.1618 27.436L26.1658 27.4479Z" fill="white"/>
<path d="M36.4614 28.3176C36.6894 28.4685 36.9135 28.6115 37.1415 28.7544C37.798 29.2111 38.1833 29.4414 38.2894 29.4414C38.5253 29.4414 38.8594 29.1277 39.2918 28.4923C39.7243 27.857 39.9405 27.3328 39.9405 26.9158C39.9405 26.4989 39.7125 26.0224 39.2565 25.5538C38.8004 25.0852 38.3287 24.8509 37.8452 24.8469C37.6997 24.8469 37.3892 25.2957 36.9096 26.1852C36.4339 27.0787 36.198 27.6624 36.1941 27.9443C36.1941 28.0714 36.2845 28.1945 36.4653 28.3216L36.4614 28.3176Z" fill="white"/>
<path d="M90.6011 21.7257L85.3373 24.8032C84.783 25.113 84.4371 25.3989 84.2955 25.649C84.154 25.9032 84.0833 26.2685 84.0833 26.749L89.9249 23.3975C90.3731 23.1235 90.6011 22.5675 90.6011 21.7217V21.7257Z" fill="white"/>
<path d="M97.7362 24.8032C97.1819 25.113 96.836 25.3989 96.6945 25.649C96.5529 25.9032 96.4822 26.2685 96.4822 26.749L102.324 23.3975C102.772 23.1235 103 22.5675 103 21.7217L97.7362 24.7992V24.8032Z" fill="white"/>
<path d="M69.3534 23.3975C69.8016 23.1235 70.0296 22.5675 70.0296 21.7217L64.7658 24.7992C64.2115 25.109 63.8655 25.3949 63.724 25.6451C63.5825 25.8992 63.5117 26.2646 63.5117 26.7451L69.3534 23.3935V23.3975Z" fill="white"/>
<path d="M17.4347 40.1315C17.2932 40.3856 17.2224 40.751 17.2224 41.2315L23.0641 37.8799C23.5122 37.6059 23.7403 37.0499 23.7403 36.2041L18.4764 39.2817C17.9222 39.5914 17.5762 39.8773 17.4347 40.1275V40.1315Z" fill="white"/>
<path d="M34.9754 18.0445L29.7116 21.1221C29.1573 21.4318 28.8113 21.7177 28.6698 21.9679C28.5283 22.222 28.4575 22.5874 28.4575 23.0679L34.2992 19.7163C34.7474 19.4423 34.9754 18.8864 34.9754 18.0405V18.0445Z" fill="white"/>
<path d="M7.73262 32.392C8.64858 32.1775 9.41122 31.8281 10.0205 31.3436C10.6299 30.8631 10.9444 30.3072 10.964 29.6758C10.9837 28.9888 10.6377 28.552 9.9262 28.3772C9.32081 28.2184 8.80976 28.2859 8.39305 28.5758C7.97242 28.8657 7.87807 29.231 8.10215 29.6758C8.29871 30.0212 8.71541 30.192 9.36012 30.192C9.4584 30.2317 9.50557 30.331 9.50557 30.4859C9.16356 31.0577 8.41271 31.5223 7.25695 31.8876L6.39603 32.1537C6.33706 32.3125 6.33706 32.4237 6.39603 32.4912C6.63976 32.5905 7.08791 32.5548 7.74048 32.388L7.73262 32.392Z" fill="white"/>
<path d="M79.6293 31.5461C79.307 31.7645 78.9453 31.9313 78.5994 32.1219C78.8706 32.6421 79.2519 32.6461 79.5939 32.4078C80.105 32.0544 80.6396 31.6891 81.0327 31.2205C81.4219 30.7559 81.7521 30.188 81.9173 29.6082C82.1256 28.8815 81.7089 28.401 80.9777 28.2819C80.1482 28.1469 79.1301 28.6353 79.0397 29.235C79.02 29.3739 79.0868 29.5248 79.1222 29.7234C79.3502 29.6201 79.535 29.4653 79.704 29.4772C80.05 29.505 80.5335 29.5169 80.6868 29.7313C80.8401 29.9497 80.7654 30.4779 80.5964 30.74C80.3762 31.0775 79.9792 31.3078 79.6293 31.5461Z" fill="white"/>
<path d="M65.8036 28.8893C66.2203 29.2904 66.8335 29.0363 67.836 28.0316C68.2605 28.4366 68.748 28.8099 69.2944 28.2897C69.9313 27.6821 70.0767 26.88 70.0256 25.8713C69.1175 27.4598 68.9957 27.6345 68.7912 27.4995C68.461 27.285 68.2212 26.9276 67.8831 26.5742C67.6905 26.9078 67.5254 27.3367 67.2384 27.6543C67.0576 27.8569 66.6999 27.9601 66.4168 27.9681C66.3264 27.9681 66.1888 27.5471 66.1259 27.3049C66.0787 27.1103 66.1181 26.8919 66.1181 26.6298C65.5205 27.2016 65.3751 28.4763 65.8036 28.8893Z" fill="white"/>
<path d="M20.505 22.4326C21.4878 22.6549 22.6907 21.5272 22.675 20.4312C22.0145 21.408 21.2008 21.6185 20.1355 21.3167C19.2785 21.0745 18.3507 21.9402 18.2917 23.0242C18.9325 22.1824 19.6677 22.2459 20.505 22.4365V22.4326Z" fill="white"/>
<path d="M52.705 22.9051C52.3394 22.5199 51.9423 22.4246 51.5649 22.8813C50.8141 23.7867 50.5468 24.9025 50.3345 25.5617C50.1301 27.0985 51.2426 27.4678 51.9423 27.1303C53.2239 26.5108 53.6917 23.9495 52.705 22.9091V22.9051ZM50.9635 25.1924C51.1482 24.8509 51.4313 24.569 51.6829 24.2632C51.962 24.5174 52.2411 24.7715 52.5202 25.0217C52.2608 25.2639 52.0013 25.5061 51.6357 25.8516C51.3173 25.5419 50.932 25.252 50.9674 25.1885L50.9635 25.1924Z" fill="white"/>
<path d="M28.6188 9.98313C28.4223 10.1817 28.324 10.4199 28.324 10.7019C28.324 10.9838 28.4223 11.2062 28.6188 11.3968C28.8154 11.5835 29.0512 11.6788 29.3264 11.6788C29.6016 11.6788 29.8257 11.5835 30.0144 11.3929C30.2031 11.2022 30.2974 10.9719 30.2974 10.6979C30.2974 10.4239 30.2031 10.1777 30.0183 9.98313C29.8296 9.78458 29.6016 9.6853 29.3303 9.6853C29.0591 9.6853 28.8154 9.78458 28.6188 9.98313Z" fill="#F93232"/>
<path d="M24.9707 8.45443C25.1948 8.58547 25.4542 8.68475 25.7491 8.74431C26.04 8.79991 26.3584 8.83168 26.6965 8.83168H63.1382L63.1264 3.45885V3.34766L61.4399 3.82815V7.3465H33.6192V3.3556L32.0192 3.86786V7.3465H26.9834C26.665 7.3465 26.4134 7.29885 26.2405 7.19957C26.0675 7.10427 25.9495 6.9772 25.8827 6.81835C25.812 6.65554 25.7884 6.46493 25.8041 6.25049C25.8238 6.02811 25.8749 5.79382 25.9574 5.54365C26.04 5.29347 26.1461 5.03932 26.268 4.78915C26.3938 4.53897 26.5274 4.29277 26.6689 4.05847L26.7476 3.9314H25.3913L25.3677 3.97508C25.2813 4.12598 25.1751 4.28482 25.0493 4.45558C24.9196 4.63031 24.7938 4.84077 24.6759 5.07903C24.5579 5.3173 24.4557 5.60321 24.3692 5.93281C24.2827 6.26241 24.2395 6.66348 24.2395 7.12015C24.2395 7.43387 24.3024 7.7039 24.4282 7.92231C24.554 8.14468 24.7348 8.32338 24.9589 8.4584L24.9707 8.45443Z" fill="#F93232"/>
<path d="M63.0557 1.79492L62.069 2.08878C62.01 2.08084 61.9353 2.06098 61.8527 2.02921C61.7623 1.99347 61.6758 1.94979 61.5933 1.8942C61.5147 1.8386 61.4478 1.77109 61.3928 1.69167C61.3417 1.61622 61.3181 1.5368 61.3181 1.44944C61.3181 1.35413 61.3574 1.25883 61.4321 1.16352C61.5029 1.07219 61.6287 1.02851 61.8095 1.02851C62.0021 1.02851 62.1594 1.09601 62.2852 1.23103L62.3402 1.2906L62.3992 1.23897C62.5564 1.10396 62.694 0.984825 62.8119 0.88952C62.9259 0.794215 63.0242 0.714794 63.1029 0.647286L63.1657 0.595663L63.1146 0.528155C62.9456 0.305776 62.7687 0.162818 62.5879 0.0953103C62.2459 -0.0277923 61.8724 -0.0397054 61.4439 0.115166C61.2356 0.190615 61.0429 0.301805 60.8621 0.448734C60.6852 0.595663 60.5358 0.77436 60.4179 0.976883C60.2999 1.18735 60.241 1.42561 60.241 1.6877C60.241 1.76712 60.2567 1.86243 60.2842 1.96567C60.3117 2.06495 60.355 2.16423 60.4061 2.25556C60.4572 2.3469 60.5201 2.42632 60.5948 2.49382C60.6105 2.50574 60.6262 2.52162 60.6419 2.53354L60.009 2.72812V3.66131L63.0439 2.75591V1.79492H63.0557Z" fill="#F93232"/>
<path d="M70.1003 2.87499C70.3677 2.87499 70.5996 2.77969 70.7844 2.59305C70.9731 2.40244 71.0674 2.17212 71.0674 1.89812C71.0674 1.62411 70.9731 1.37791 70.7883 1.18333C70.5996 0.984774 70.3716 0.885498 70.1003 0.885498C69.8291 0.885498 69.5854 0.984774 69.3888 1.18333C69.1962 1.38188 69.0979 1.62014 69.0979 1.90209C69.0979 2.18403 69.1962 2.41038 69.3927 2.59702C69.5893 2.78366 69.8252 2.87897 70.1003 2.87897V2.87499Z" fill="#F93232"/>
<path d="M75.6824 0.444824L73.9999 0.925321V7.34254H71.0083V3.34369L69.3218 3.82419V7.34254H66.2634V0.444824L64.5769 0.925321V8.82771H75.6824V0.444824Z" fill="#F93232"/>
<path d="M78.5995 0.444824L76.917 0.925321V8.82771H78.5995V0.444824Z" fill="#F93232"/>
</g>
<defs>
<clipPath id="clip0_66_2527">
<rect width="103" height="62" fill="white"/>
</clipPath>
</defs>
</svg>
