<?xml version="1.0" encoding="UTF-8"?>
<svg id="Layer_2" data-name="Layer 2" xmlns="http://www.w3.org/2000/svg" viewBox="0 0 236.35 45.07">
  <defs>
    <style>
      .cls-1 {
        opacity: .5;
      }

      .cls-1, .cls-2, .cls-3 {
        fill: #172b55;
      }

      .cls-4 {
        fill: none;
        stroke: #6e89af;
        stroke-miterlimit: 10;
        stroke-width: .49px;
      }

      .cls-3 {
        opacity: .8;
      }

      .cls-5 {
        fill: #6e89af;
        font-family: HelveticaNeueLTArabic-Bold, 'Helvetica Neue LT Arabic';
        font-size: 4.18px;
        font-weight: 700;
      }
    </style>
  </defs>
  <g id="Layer_1-2" data-name="Layer 1">
    <g>
      <path class="cls-2" d="m81.2,18.84l-15.76-15.76c-1.29-1.28-2.88-2.22-4.62-2.7-.92-.25-1.87-.38-2.84-.38-1.12,0-2.23.17-3.29.52-.49.16-.98.36-1.46.61-1.99,1.01-3.64,2.65-4.65,4.65-.75,1.48-1.13,3.08-1.13,4.75v5.79l-9.75-9.74-3.5-3.5c-1.43-1.43-3.22-2.41-5.2-2.84-.3-.07-.62-.13-.99-.17-.42-.05-.84-.07-1.26-.07-1.13,0-2.23.17-3.3.52-.49.16-.98.36-1.46.61-1.99,1.01-3.63,2.65-4.64,4.65-.7,1.37-1.08,2.86-1.13,4.43v.22s-.01,6.58-.01,6.58l-.07-.02-2.33-.78c-.42-.14-.87-.26-1.34-.34-.64-.12-1.3-.18-1.95-.18-1.11,0-2.21.17-3.29.53-.11.03-.21.07-.32.11-.37.13-.76.29-1.14.49-.99.5-1.89,1.16-2.69,1.95-.8.8-1.45,1.7-1.95,2.69-.74,1.46-1.13,3.11-1.13,4.76v8.31c0,2.81,1.09,5.46,3.08,7.45,1.19,1.19,2.59,2.05,4.17,2.57,1.06.34,2.17.52,3.29.52.82,0,1.63-.1,2.44-.29.27-.06.55-.14.84-.24,1.58-.51,2.98-1.37,4.17-2.56.4-.4.78-.85,1.12-1.32,1.28-1.79,1.96-3.91,1.96-6.13v-5.79l9.63,9.62.12.12h0s3.77,3.77,3.77,3.77c1.13,1.05,2.44,1.82,3.9,2.3,1.06.34,2.16.52,3.28.52.98,0,1.95-.13,2.88-.4.13-.04.25-.07.41-.13.51-.16,1-.36,1.47-.61,1-.5,1.9-1.15,2.69-1.95.51-.5.96-1.06,1.36-1.65,1.13-1.72,1.73-3.72,1.73-5.8v-6.46l13.92,13.92h.02s.05.06.05.06c1.17,1.15,2.54,1.99,4.1,2.5,1.06.34,2.16.52,3.28.52.82,0,1.64-.1,2.44-.29.27-.06.55-.14.85-.24.51-.16,1.01-.37,1.47-.6.99-.5,1.89-1.16,2.69-1.96.4-.4.78-.85,1.12-1.32,1.21-1.69,1.89-3.69,1.95-5.78v-9.35c-.15-2.52-1.22-4.9-3-6.69Zm-64.99,7.38v8.31c0,.44-.05.88-.16,1.3-.23,1.03-.75,1.96-1.5,2.71-1.07,1.08-2.5,1.67-4.01,1.67s-2.95-.59-4.02-1.67c-1.03-1.03-1.62-2.39-1.66-3.84v-8.65c.04-1.45.63-2.81,1.66-3.84.91-.91,2.09-1.48,3.36-1.62.22-.03.44-.04.66-.04.64,0,1.26.1,1.84.31.75.25,1.44.66,2.02,1.22.05.04.09.08.14.13.04.04.08.08.12.13l1.54,1.54v2.15c0,.06,0,.13,0,.19Zm31.24,8.31c0,.16-.01.32-.02.45-.11,1.34-.69,2.61-1.65,3.56-1.07,1.08-2.49,1.67-4.01,1.67s-2.94-.59-4.01-1.67l-16.69-16.68v-11.33c0-3.13,2.55-5.67,5.68-5.67,1.41,0,2.77.52,3.84,1.49l.64.61v.03l3.03,3.03,13.19,13.18v11.33Zm31.9,0c0,.46-.05.9-.15,1.29-.24,1.03-.76,1.97-1.51,2.72-.9.9-2.03,1.46-3.28,1.61-.25.04-.49.06-.74.06-.31,0-.61-.03-.91-.09-1.12-.17-2.15-.68-2.98-1.47-.04-.03-.08-.07-.12-.11-.03-.02-.06-.06-.09-.09l-4.08-4.07-13.18-13.19v-10.66c0-3.13,2.54-5.67,5.67-5.67,1.42,0,2.77.52,3.82,1.47l.03.03,9.29,9.28,6.46,6.46c.12.11.24.23.34.35.92,1.01,1.43,2.33,1.43,3.71v8.37Z"/>
      <polygon class="cls-2" points="47.45 16.32 47.45 23.2 34.26 10.02 37.7 6.58 47.45 16.32"/>
      <polygon class="cls-3" points="47.45 16.32 47.45 23.2 34.26 10.02 37.7 6.58 47.45 16.32"/>
      <polygon class="cls-2" points="52.31 28.07 52.31 21.19 65.49 34.38 62.05 37.81 52.31 28.07"/>
      <polygon class="cls-3" points="52.31 28.07 52.31 21.19 65.49 34.38 62.05 37.81 52.31 28.07"/>
      <polygon class="cls-1" points="21.07 28.74 21.07 21.87 34.25 35.05 30.82 38.49 21.07 28.74"/>
      <path class="cls-2" d="m16.2,17.05v6.83l-1.54-1.54c-.04-.05-.08-.09-.12-.13-.05-.05-.09-.09-.14-.13-.58-.56-1.27-.97-2.02-1.22-.58-.21-1.2-.31-1.84-.31-.22,0-.44.01-.66.04l-2.97-4.26c.11-.04.21-.08.32-.11,1.08-.36,2.18-.53,3.29-.53.65,0,1.31.06,1.95.18.47.08.92.2,1.34.34l2.33.78.06.06Z"/>
    </g>
    <path class="cls-2" d="m181.02,16.51v-5.63h5.65v33.15h-5.64v-5.45c-1,1.06-1.79,2.05-2.73,2.87-5.19,4.5-13.32,4.83-19.23.61-6.04-4.31-8.43-10.37-7.23-17.59,1.23-7.39,5.6-12.38,13-14.05,6.19-1.4,11.61.21,15.63,5.44.11.15.24.29.55.65Zm-23.66,10.99c0,6.77,5.03,11.87,11.72,11.88,6.72.01,11.9-5.14,11.91-11.87.01-6.71-5.18-11.95-11.85-11.96-6.71,0-11.78,5.13-11.78,11.94Z"/>
    <path class="cls-2" d="m118.09,34.72c1.6.91,3.16,1.79,4.95,2.81-.99,1.1-1.85,2.19-2.85,3.14-7.58,7.16-24.43,5.98-28.77-7.13-2.63-7.94-.01-17.49,8.09-21.61,6.3-3.2,14.73-2.64,19.91,2.78,4.09,4.28,5.49,9.45,4.89,15.37h-27.81c.18,3.69,3.31,7.36,7.33,8.72,5.44,1.84,10.41.45,14.27-4.08Zm.42-9.66c-.55-5.44-4.74-9.82-10.87-9.61-6.19.22-11.3,4.74-11.11,9.61h21.98Z"/>
    <path class="cls-2" d="m148.11,16.44v-5.65h-8.8V1.53h-2.42l-.74.95-2.57,3.28-4,5.08-2.6,3.3v2.29h6.6v1.28c0,5.99-.05,11.99.05,17.98.06,4.47,2.11,7.33,6.02,8.22,2,.46,4.14.35,6.22.41.76.04,1.52-.14,2.23-.22v-5.08c-1.38,0-2.69.05-4,0-3.78-.15-4.78-1.22-4.78-4.98v-17.61h8.79Z"/>
    <g>
      <text class="cls-5" transform="translate(231.65 7.64)"><tspan x="0" y="0">R</tspan></text>
      <circle class="cls-4" cx="233.15" cy="6.13" r="2.96"/>
    </g>
    <path class="cls-2" d="m227.41,32.35v-9.31h-.01v-14.85h-4.86s0,0,0,0c-.32,0-.64,0-.95,0h-.22c-1.83,0-3.56.02-5.3-.04-4.06,7.92-8.15,15.82-12.22,23.73-.09.18-.26.37-.26.55-.02,1.82-.01,3.65-.01,5.56h17.85v6.41h6.01v-6.46h4.01v-5.6h-4.04Zm-6.03,0h-11.29c3.77-7.31,7.51-14.57,11.29-21.89v21.89Z"/>
  </g>
</svg>