<?xml version="1.0" encoding="UTF-8"?>
<svg fill="currentColor" id="Layer_2" data-name="Layer 2" xmlns="http://www.w3.org/2000/svg" viewBox="0 0 197.88 30.26">
  <defs/>
  <g id="Layer_1-2" data-name="Layer 1">
    <path d="m0,7.99h6.68v22.26H0V7.99Z"/>
    <path d="m57.35,7.99h19.67v4.92h-12.99v3.85h12.89v4.7h-12.89v3.88h12.99v4.92h-19.67V7.99Z"/>
    <path d="m80.56,7.99h7.38l11.89,14.69V7.99h6.56v22.26h-7.6l-11.63-14.31v14.31h-6.59V7.99Z"/>
    <path d="m115.52,13.19h-6.78v-5.2h20.21v5.2h-6.75v17.06h-6.68V13.19Z"/>
    <path d="m131.35,7.99h6.68v22.26h-6.68V7.99Z"/>
    <path d="m147.18,13.19h-6.78v-5.2h20.21v5.2h-6.75v17.06h-6.68V13.19Z"/>
    <path d="m171.08,20.38l-10.03-12.39h7.76l5.61,6.97,5.61-6.97h7.72l-10.03,12.39v9.87h-6.65v-9.87Z"/>
    <path d="m54.43,19.14c0,2.63-.51,5.21-1.52,7.59,0,.01-.01.01-.01.01-.58.6-1.24,1.12-2,1.56,1.57-2.79,2.4-5.93,2.4-9.16s-.83-6.38-2.4-9.16c.77.45,1.44.99,2.02,1.59,0,0,.02,0,0,.01,1,2.37,1.51,4.94,1.51,7.56Z"/>
    <path d="m51.68,19.14c0,3.87-1.29,7.45-3.47,10.32h-.01c-.58.19-1.2.34-1.86.45,2.6-2.84,4.2-6.62,4.2-10.77s-1.59-7.95-4.21-10.8c.66.12,1.28.27,1.87.46,2.19,2.86,3.48,6.45,3.48,10.33Z"/>
    <path d="m48.91,19.14c0,4.45-2.03,8.43-5.23,11.07h-.01c-.47.04-.96.05-1.46.05h-.54c3.68-2.35,6.11-6.45,6.11-11.12s-2.45-8.8-6.12-11.14h.55c.5,0,.96.01,1.44.04h.01c3.21,2.64,5.26,6.63,5.26,11.1Z"/>
    <path d="m46.16,19.14c0,5.27-3.53,9.72-8.36,11.12h-3.23v-.67c5.76,0,10.45-4.7,10.45-10.45s-4.7-10.45-10.45-10.45v-.68h3.18c4.86,1.38,8.41,5.85,8.41,11.14Z"/>
    <path d="m34.58,27.97v-1.14c4.24,0,7.7-3.45,7.7-7.7s-3.45-7.7-7.7-7.7v-1.14c4.87,0,8.83,3.96,8.83,8.83s-3.96,8.83-8.83,8.83Z"/>
    <path d="m34.58,25.22v-1.14c2.72,0,4.94-2.22,4.94-4.94s-2.22-4.94-4.94-4.94v-1.14c3.35,0,6.08,2.73,6.08,6.08s-2.73,6.08-6.08,6.08Z"/>
    <path d="m34.58,22.46v-1.14c1.21,0,2.19-.98,2.19-2.19s-.98-2.19-2.19-2.19v-1.14c1.83,0,3.32,1.49,3.32,3.32s-1.49,3.32-3.32,3.32Z"/>
    <path d="m34.58,29.59v.67h-4.82c-10.83-2.09-19.23-11.09-20.4-22.21,0-.01-.01-.02,0-.04h0s1.13-.01,1.13-.01c1.31,12.12,11.61,21.59,24.08,21.59Z"/>
    <path d="m34.58,26.83v1.14c-11.57,0-21.14-8.75-22.44-19.97h1.14c1.3,10.6,10.36,18.83,21.3,18.83Z"/>
    <path d="m34.58,24.08v1.13c-10.04,0-18.38-7.51-19.67-17.21h1.14c1.28,9.08,9.1,16.08,18.52,16.08Z"/>
    <path d="m24.95,18.11l-.68.9c-3.6-2.73-5.93-6.63-6.58-11h1.16c.65,4,2.8,7.59,6.11,10.1Z"/>
    <path d="m27.33,20.85c-1.08-.5-2.11-1.12-3.06-1.84l.69-.91c.89.67,1.85,1.25,2.85,1.72l-.48,1.03Z"/>
    <path d="m34.58,22.46c-2.53,0-4.97-.54-7.25-1.61l.48-1.03c2.12.99,4.4,1.5,6.77,1.5v1.14Z"/>
    <path d="m34.58,18.57v1.13c-7.01,0-12.85-5.04-14.08-11.7h1.14c1.23,6.02,6.56,10.56,12.94,10.56Z"/>
    <path d="m34.58,15.82v1.13c-5.48,0-10.08-3.82-11.28-8.95h1.17c1.17,4.49,5.26,7.81,10.11,7.81Z"/>
    <path d="m34.58,13.06v1.14c-3.96,0-7.31-2.62-8.43-6.19h1.22c1.07,2.95,3.89,5.05,7.22,5.05Z"/>
    <path d="m34.58,10.31v1.13c-2.4,0-4.48-1.4-5.46-3.43h1.3c.86,1.39,2.41,2.3,4.16,2.3Z"/>
    <path d="m34.58,8v.68c-.77,0-1.46-.26-2.02-.68h2.02Z"/>
    <path d="m24.85,30.26h-3.15c-5.38-2.6-9.76-7.01-12.34-12.41v-3.19c2.49,7.25,8.25,13.06,15.49,15.6Z"/>
    <path d="m19.15,30.26h-2.42c-2.88-1.86-5.39-4.27-7.36-7.1v-2.23c2.35,3.94,5.74,7.17,9.78,9.32Z"/>
    <path d="m14.17,30.26h-2.02c-.99-.8-1.92-1.68-2.79-2.62v-1.85c1.41,1.7,3.02,3.2,4.81,4.47Z"/>
    <path fill="currentColor" class="cls-1" d="m194.2,7.64c-.43,0-.84-.08-1.21-.24s-.71-.39-1-.67-.51-.62-.67-1-.24-.78-.24-1.21.08-.84.24-1.21.39-.71.67-1,.62-.51,1-.67.78-.24,1.21-.24.84.08,1.21.24.71.39,1,.67.51.62.67,1,.24.78.24,1.21-.08.84-.24,1.21-.39.71-.67,1-.62.51-1,.67-.78.24-1.21.24Zm0-.58c.47,0,.9-.11,1.28-.34s.69-.54.92-.92.34-.81.34-1.28-.11-.9-.34-1.28-.54-.69-.92-.92-.81-.34-1.28-.34-.9.11-1.28.34-.69.54-.92.92-.34.81-.34,1.28.11.9.34,1.28.54.69.92.92.81.34,1.28.34Zm-1.06-1.14v-2.88h1.38c.15,0,.29.03.42.1s.25.17.34.3.13.3.13.49-.05.36-.14.51-.21.25-.35.33-.29.11-.44.11h-1.07v-.39h.94c.13,0,.25-.05.36-.14s.16-.23.16-.41-.05-.31-.16-.39-.22-.12-.35-.12h-.73v2.49h-.5Zm1.68-1.34l.72,1.34h-.56l-.7-1.34h.54Z"/>
  </g>
</svg>