<svg width="24" height="25" viewBox="0 0 24 25" fill="none" xmlns="http://www.w3.org/2000/svg">
<path d="M4.27209 21.2279L10.8686 14.6314C11.2646 14.2354 11.4627 14.0373 11.691 13.9632C11.8918 13.8979 12.1082 13.8979 12.309 13.9632C12.5373 14.0373 12.7354 14.2354 13.1314 14.6314L19.6839 21.1839M14 15.5L16.8686 12.6314C17.2646 12.2354 17.4627 12.0373 17.691 11.9632C17.8918 11.8979 18.1082 11.8979 18.309 11.9632C18.5373 12.0373 18.7354 12.2354 19.1314 12.6314L22 15.5M10 9.5C10 10.6046 9.10457 11.5 8 11.5C6.89543 11.5 6 10.6046 6 9.5C6 8.39543 6.89543 7.5 8 7.5C9.10457 7.5 10 8.39543 10 9.5ZM6.8 21.5H17.2C18.8802 21.5 19.7202 21.5 20.362 21.173C20.9265 20.8854 21.3854 20.4265 21.673 19.862C22 19.2202 22 18.3802 22 16.7V8.3C22 6.61984 22 5.77976 21.673 5.13803C21.3854 4.57354 20.9265 4.1146 20.362 3.82698C19.7202 3.5 18.8802 3.5 17.2 3.5H6.8C5.11984 3.5 4.27976 3.5 3.63803 3.82698C3.07354 4.1146 2.6146 4.57354 2.32698 5.13803C2 5.77976 2 6.61984 2 8.3V16.7C2 18.3802 2 19.2202 2.32698 19.862C2.6146 20.4265 3.07354 20.8854 3.63803 21.173C4.27976 21.5 5.11984 21.5 6.8 21.5Z" stroke="currentColor" stroke-width="2" stroke-linecap="round" stroke-linejoin="round"/>
</svg>
